<svg width="24" height="25" viewBox="0 0 24 25" fill="none" xmlns="http://www.w3.org/2000/svg">
<path d="M20.6288 16.0302C20.551 15.9364 20.4745 15.8427 20.3995 15.7522C19.3683 14.5048 18.7444 13.752 18.7444 10.2209C18.7444 8.39281 18.307 6.89281 17.445 5.76781C16.8094 4.93672 15.9502 4.30625 14.8177 3.84031C14.8031 3.83221 14.7901 3.82157 14.7792 3.80891C14.3719 2.44484 13.2572 1.53125 12 1.53125C10.7428 1.53125 9.62861 2.44484 9.22127 3.8075C9.2104 3.8197 9.19756 3.83 9.1833 3.83797C6.54049 4.92594 5.25611 7.01328 5.25611 10.2195C5.25611 13.752 4.63314 14.5048 3.60095 15.7508C3.52595 15.8413 3.44955 15.9331 3.37174 16.0287C3.17074 16.2712 3.04339 16.5661 3.00476 16.8786C2.96613 17.1911 3.01784 17.5081 3.15377 17.7922C3.44299 18.4016 4.05939 18.7798 4.76299 18.7798H19.2422C19.9425 18.7798 20.5547 18.402 20.8449 17.7955C20.9814 17.5114 21.0336 17.1941 20.9953 16.8812C20.957 16.5683 20.8298 16.273 20.6288 16.0302ZM12 22.5312C12.6774 22.5307 13.342 22.3468 13.9233 21.9991C14.5046 21.6515 14.981 21.1529 15.3019 20.5564C15.317 20.5278 15.3245 20.4958 15.3236 20.4635C15.3227 20.4312 15.3134 20.3996 15.2967 20.3719C15.28 20.3442 15.2564 20.3213 15.2283 20.3054C15.2001 20.2895 15.1683 20.2812 15.136 20.2812H8.86502C8.83264 20.2811 8.80078 20.2894 8.77255 20.3053C8.74432 20.3211 8.72067 20.344 8.70392 20.3717C8.68716 20.3994 8.67787 20.431 8.67694 20.4634C8.67601 20.4957 8.68347 20.5278 8.69861 20.5564C9.01949 21.1529 9.49579 21.6513 10.077 21.999C10.6582 22.3467 11.3227 22.5306 12 22.5312Z" fill="#0E9AFF"/>
</svg>
