<svg width="100" height="101" viewBox="0 0 100 101" fill="none" xmlns="http://www.w3.org/2000/svg">
<g id="Frame">
<g id="Group">
<g id="Group_2">
<path id="Vector" fill-rule="evenodd" clip-rule="evenodd" d="M49.9444 95.2067C62.1267 95.2067 72.0622 93.5222 72.0622 91.4556C72.0622 89.3889 62.1267 87.7045 49.9444 87.7045C37.7622 87.7045 27.8267 89.3889 27.8267 91.4556C27.8267 93.5222 37.7622 95.2067 49.9444 95.2067Z" fill="#DADEE9"/>
<path id="Vector_2" fill-rule="evenodd" clip-rule="evenodd" d="M72.8111 95.7333C74.8355 95.7333 76.4866 95.3044 76.4866 94.7777C76.4866 94.251 74.8355 93.8221 72.8111 93.8221C70.7866 93.8221 69.1355 94.251 69.1355 94.7777C69.1355 95.3021 70.7866 95.7333 72.8111 95.7333Z" fill="#DADEE9"/>
<path id="Rectangle 349" d="M3.33337 16.9207L96.6667 24.629V75.879L3.33337 83.5873V16.9207Z" fill="#EBEBEB"/>
</g>
<g id="Group_3">
<path id="Vector_3" fill-rule="evenodd" clip-rule="evenodd" d="M48.7023 47.0135H75.2512C75.7778 47.0135 76.2045 47.4402 76.2045 47.9668C76.2045 48.4935 75.7778 48.9202 75.2512 48.9202H48.7023V47.0135Z" fill="#323232"/>
<path id="Vector_4" fill-rule="evenodd" clip-rule="evenodd" d="M54.6601 31.636H72.7734C73.2156 31.636 73.509 31.9982 73.4245 32.4404L70.629 47.0138H50.9067L53.7023 32.4404C53.7867 31.996 54.2178 31.636 54.6601 31.636Z" fill="white"/>
<path id="Vector_5" opacity="0.5" fill-rule="evenodd" clip-rule="evenodd" d="M68.3756 47.0135H52.8845L54.4645 38.7846C54.5312 38.438 54.869 38.1535 55.2179 38.1535H69.4467C69.7934 38.1535 70.0245 38.438 69.9579 38.7846L68.3756 47.0135Z" fill="#22AEFF"/>
<g id="Group_4">
<path id="Vector_6" fill-rule="evenodd" clip-rule="evenodd" d="M56.4334 33.2025C57.2534 33.2025 57.8334 33.867 57.7312 34.687C57.6289 35.507 56.8823 36.1714 56.0623 36.1714C55.2423 36.1714 54.6623 35.507 54.7645 34.687C54.8667 33.867 55.6134 33.2025 56.4334 33.2025Z" fill="#121212"/>
<path id="Vector_7" fill-rule="evenodd" clip-rule="evenodd" d="M56.9534 35.8978C56.689 36.0689 56.3823 36.1689 56.0623 36.1689C55.6134 36.1689 55.2357 35.9689 55.0023 35.6534C55.2379 35.2045 55.7801 34.9445 56.2734 35.0645C56.6912 35.1645 56.9512 35.5045 56.9534 35.8978ZM56.5534 33.6934C56.2179 33.6134 55.849 33.8111 55.7268 34.1356C55.6045 34.46 55.7779 34.7889 56.1112 34.8689C56.4468 34.9489 56.8157 34.7511 56.9379 34.4267C57.0623 34.1022 56.889 33.7734 56.5534 33.6934Z" fill="white"/>
</g>
<g id="Group_5">
<path id="Vector_8" d="M64.4844 33.9138H58.8156V34.536H64.4844V33.9138Z" fill="#121212"/>
<path id="Vector_9" d="M61.1445 34.8006H58.6289V35.4228H61.1445V34.8006Z" fill="#121212"/>
</g>
<path id="Vector_10" fill-rule="evenodd" clip-rule="evenodd" d="M75.1801 26.4047L73.2756 28.7558L73.0712 28.5891L74.9756 26.238L75.1801 26.4047ZM74.6512 29.6647L76.2201 29.2158L76.2912 29.4691L74.7223 29.918L74.6512 29.6647Z" fill="#121212"/>
</g>
<g id="Group_6">
<g id="Group_7">
<path id="Vector_11" fill-rule="evenodd" clip-rule="evenodd" d="M55.4821 14.0288L67.2621 13.5311C67.551 13.5177 67.8177 13.6266 68.0177 13.8088C68.2154 13.9911 68.3443 14.2488 68.3577 14.5377L68.6177 20.7155C68.6288 21.0044 68.5221 21.2711 68.3399 21.4711C68.1577 21.6688 67.8999 21.7977 67.611 21.8111L60.8043 22.0977L59.0866 23.9666C58.9821 24.08 58.8399 24.14 58.6954 24.1466C58.551 24.1533 58.4043 24.1044 58.291 24L56.4243 22.2844L55.8332 22.3088C55.5443 22.3222 55.2777 22.2133 55.0777 22.0311C54.8799 21.8488 54.751 21.5911 54.7377 21.3022L54.4777 15.1244C54.4643 14.8355 54.5732 14.5688 54.7554 14.3688C54.9332 14.1711 55.1932 14.0422 55.4821 14.0288ZM67.2666 13.6577L55.4866 14.1555C55.2332 14.1666 55.0043 14.28 54.8443 14.4555C54.6843 14.6311 54.5888 14.8666 54.5999 15.1222L54.8599 21.3C54.871 21.5555 54.9843 21.7822 55.1599 21.9422C55.3354 22.1022 55.571 22.1977 55.8266 22.1866L56.4688 22.16C57.0977 22.7377 57.7332 23.3533 58.3754 23.9133C58.4643 23.9933 58.5777 24.0311 58.691 24.0266C58.8043 24.0222 58.9154 23.9733 58.9954 23.8844C59.5532 23.2422 60.1688 22.6088 60.7466 21.98L67.6066 21.6911C67.8621 21.68 68.0888 21.5666 68.2488 21.3911C68.4088 21.2155 68.5043 20.98 68.4932 20.7244L68.2332 14.5466C68.2221 14.2933 68.1088 14.0644 67.9332 13.9044C67.7577 13.7444 67.5199 13.6466 67.2666 13.6577Z" fill="#121212"/>
<g id="Group_8">
<path id="Vector_12" fill-rule="evenodd" clip-rule="evenodd" d="M58.8643 17.2598C59.2577 17.2242 59.6043 17.5131 59.6399 17.9065C59.6755 18.2998 59.3866 18.6465 58.9932 18.682C58.5999 18.7176 58.2532 18.4287 58.2177 18.0354C58.1821 17.6442 58.471 17.2954 58.8643 17.2598Z" fill="#121212"/>
<path id="Vector_13" fill-rule="evenodd" clip-rule="evenodd" d="M61.4777 17.011C61.8711 16.9755 62.2177 17.2643 62.2533 17.6577C62.2888 18.051 61.9999 18.3977 61.6066 18.4332C61.2133 18.4688 60.8666 18.1799 60.8311 17.7866C60.7933 17.3955 61.0844 17.0466 61.4777 17.011Z" fill="#121212"/>
<path id="Vector_14" fill-rule="evenodd" clip-rule="evenodd" d="M64.0977 16.9177C64.4911 16.8821 64.8377 17.171 64.8733 17.5644C64.9089 17.9577 64.62 18.3044 64.2266 18.3399C63.8333 18.3755 63.4866 18.0866 63.4511 17.6932C63.4155 17.2999 63.7044 16.9532 64.0977 16.9177Z" fill="#121212"/>
</g>
</g>
<g id="Group_9">
<g id="Group_10">
<path id="Vector_15" fill-rule="evenodd" clip-rule="evenodd" d="M77.98 58.9311C79.0733 59.0578 79.8578 60.0467 79.7311 61.14C79.6044 62.2334 78.6156 63.0178 77.5222 62.8911C76.4289 62.7645 75.6444 61.7756 75.7711 60.6823C75.8978 59.5889 76.8867 58.8045 77.98 58.9311Z" fill="#22AEFF"/>
<path id="Vector_16" fill-rule="evenodd" clip-rule="evenodd" d="M77.0911 60.3891L77.5423 60.9647L78.9867 60.138L79.3178 60.7202L77.3734 61.8358L76.5623 60.8047L77.0911 60.3891Z" fill="white"/>
</g>
<path id="Vector_17" fill-rule="evenodd" clip-rule="evenodd" d="M77.4044 63.9022C78.4978 64.0289 79.2822 65.0178 79.1555 66.1111C79.0289 67.2044 78.04 67.9889 76.9467 67.8622C75.8533 67.7355 75.0689 66.7467 75.1955 65.6533C75.3222 64.56 76.3111 63.7755 77.4044 63.9022Z" fill="#323232"/>
<path id="Vector_18" fill-rule="evenodd" clip-rule="evenodd" d="M76.8267 68.8733C77.92 69 78.7045 69.9889 78.5778 71.0822C78.4511 72.1756 77.4622 72.96 76.3689 72.8333C75.2756 72.7067 74.4911 71.7178 74.6178 70.6245C74.7445 69.5311 75.7333 68.7467 76.8267 68.8733Z" fill="#121212"/>
<g id="Group_11">
<path id="Vector_19" d="M81.3302 60.5513L81.2693 61.0767L85.7197 61.5923L85.7806 61.0669L81.3302 60.5513Z" fill="#212121"/>
<path id="Vector_20" d="M81.2139 61.5463L81.1531 62.0717L82.5218 62.2301L82.5826 61.7047L81.2139 61.5463Z" fill="#212121"/>
</g>
<g id="Group_12">
<path id="Vector_21" d="M80.7857 65.2627L80.7249 65.7881L85.1753 66.3037L85.2362 65.7783L80.7857 65.2627Z" fill="#212121"/>
<path id="Vector_22" d="M80.6649 66.2644L80.604 66.7897L83.5861 67.1356L83.647 66.6102L80.6649 66.2644Z" fill="#212121"/>
</g>
</g>
<g id="Group_13">
<g id="Group_14">
<path id="Vector_23" fill-rule="evenodd" clip-rule="evenodd" d="M15.96 26.631C17.04 26.631 17.92 25.751 17.92 24.671C17.92 23.591 17.04 22.711 15.96 22.711C14.88 22.711 14 23.591 14 24.671C14 25.751 14.88 26.631 15.96 26.631Z" fill="#121212"/>
<path id="Vector_24" fill-rule="evenodd" clip-rule="evenodd" d="M15.9599 23.3354C16.4444 23.3354 16.8355 23.7265 16.8355 24.2109C16.8355 24.6954 16.4444 25.0865 15.9599 25.0865C15.4755 25.0865 15.0844 24.6954 15.0844 24.2109C15.0844 23.7265 15.4755 23.3354 15.9599 23.3354ZM17.2622 26.1354C16.9155 26.4443 16.4599 26.6309 15.9599 26.6309C15.4599 26.6309 15.0044 26.4443 14.6577 26.1354C14.8888 25.6465 15.3844 25.3087 15.9599 25.3087C16.5355 25.3109 17.031 25.6487 17.2622 26.1354Z" fill="white"/>
<g id="Group_15">
<path id="Vector_25" d="M23.0288 23.429H18.5488V23.9579H23.0288V23.429Z" fill="#212121"/>
<path id="Vector_26" d="M19.9266 24.4312H18.5488V24.9601H19.9266V24.4312Z" fill="#212121"/>
</g>
</g>
<g id="Group_16">
<path id="Vector_27" fill-rule="evenodd" clip-rule="evenodd" d="M15.96 32.5576C17.04 32.5576 17.92 31.6776 17.92 30.5976C17.92 29.5176 17.04 28.6376 15.96 28.6376C14.88 28.6376 14 29.5176 14 30.5976C14 31.6754 14.88 32.5576 15.96 32.5576Z" fill="#121212"/>
<path id="Vector_28" fill-rule="evenodd" clip-rule="evenodd" d="M15.9599 29.2601C16.4444 29.2601 16.8355 29.6512 16.8355 30.1356C16.8355 30.6201 16.4444 31.0112 15.9599 31.0112C15.4755 31.0112 15.0844 30.6178 15.0844 30.1356C15.0844 29.6534 15.4755 29.2601 15.9599 29.2601ZM17.2622 32.0623C16.9155 32.3712 16.4599 32.5578 15.9599 32.5578C15.4599 32.5578 15.0044 32.3712 14.6577 32.0623C14.8888 31.5734 15.3844 31.2356 15.9599 31.2356C16.5355 31.2356 17.031 31.5734 17.2622 32.0623Z" fill="white"/>
<g id="Group_17">
<path id="Vector_29" d="M20.6355 29.3555H18.5488V29.8844H20.6355V29.3555Z" fill="#212121"/>
<path id="Vector_30" d="M21.4955 30.3578H18.5488V30.8867H21.4955V30.3578Z" fill="#212121"/>
</g>
</g>
<path id="Vector_31" fill-rule="evenodd" clip-rule="evenodd" d="M17.2667 24.0643C17.7378 24.0643 18.12 23.6799 18.12 23.211C18.12 22.7399 17.7356 22.3577 17.2667 22.3577C16.7956 22.3577 16.4133 22.7421 16.4133 23.211C16.4133 23.6821 16.7978 24.0643 17.2667 24.0643Z" fill="#22AEFF"/>
</g>
<g id="Group_18">
<path id="Vector_32" d="M67.0356 53.4908C67.3142 53.4908 67.54 53.265 67.54 52.9864C67.54 52.7078 67.3142 52.4819 67.0356 52.4819C66.757 52.4819 66.5311 52.7078 66.5311 52.9864C66.5311 53.265 66.757 53.4908 67.0356 53.4908Z" fill="#121212"/>
<path id="Vector_33" fill-rule="evenodd" clip-rule="evenodd" d="M81.6932 39.9398C81.9621 39.9398 82.1821 39.7198 82.1821 39.4509C82.1821 39.182 81.9621 38.962 81.6932 38.962C81.4244 38.962 81.2044 39.182 81.2044 39.4509C81.2021 39.7198 81.4221 39.9398 81.6932 39.9398Z" fill="#121212"/>
<path id="Vector_34" d="M50.74 29.2999C50.9253 29.2999 51.0755 29.1497 51.0755 28.9643C51.0755 28.779 50.9253 28.6288 50.74 28.6288C50.5547 28.6288 50.4044 28.779 50.4044 28.9643C50.4044 29.1497 50.5547 29.2999 50.74 29.2999Z" fill="#121212"/>
<path id="Vector_35" fill-rule="evenodd" clip-rule="evenodd" d="M30.6933 71.1866C30.8778 71.1866 31.0289 71.0354 31.0289 70.851C31.0289 70.6665 30.8778 70.5154 30.6933 70.5154C30.5089 70.5154 30.3578 70.6665 30.3578 70.851C30.3578 71.0354 30.5089 71.1866 30.6933 71.1866Z" fill="#121212"/>
</g>
</g>
<g id="Group_19">
<g id="Group_20">
<g id="Group_21">
<g id="Group_22">
<path id="Vector_36" fill-rule="evenodd" clip-rule="evenodd" d="M28.6689 53.6178L27.6378 54.4C27.6378 54.4 24.3801 66.2667 35.6712 66.8467L39.6334 87.5045H45.5689L45.2401 61.2867L41.8667 61.8956L37.4067 54.1956L28.6689 53.6178Z" fill="#212121"/>
<path id="Vector_37" fill-rule="evenodd" clip-rule="evenodd" d="M44.8423 87.5045C45.2756 88.0756 46.0956 89.3467 46.2623 90.9667H39.5023C39.5023 90.9667 39.22 89.1489 39.9134 87.5045H44.8423Z" fill="#212121"/>
</g>
<g id="Group_23">
<path id="Vector_38" fill-rule="evenodd" clip-rule="evenodd" d="M48.5801 54.4L64.2179 57.9889C65.2023 58.2155 67.0201 60.6266 66.1957 63.1C65.3712 65.5733 61.909 87.6688 61.909 87.6688H55.4779L55.6423 65.7377C48.5334 66.2511 33.2801 67.72 33.4446 55.9177C41.6446 57.1022 48.5801 54.4 48.5801 54.4Z" fill="#121212"/>
<path id="Vector_39" fill-rule="evenodd" clip-rule="evenodd" d="M48.58 54.4C48.6711 56.08 46.7178 57.8777 44.2867 59.3822C44.6289 59.7933 45.0689 60.2422 45.4356 60.3533C46.16 60.5755 60.3933 62.8089 60.4356 62.8155L60.5133 62.8266L60.4733 62.8933C60.4711 62.8955 59.84 63.9511 60.4956 64.1022L60.54 64.1133L58.2956 86.2777L58.1911 86.2666L60.4267 64.1933C59.8067 64.0066 60.2111 63.1533 60.3445 62.9066C59.2467 62.7355 46.1067 60.6689 45.4045 60.4533C45.0156 60.3333 44.5511 59.86 44.1978 59.4355C41.2867 61.22 37.7289 62.58 36.18 62.8177C34.4645 61.2866 33.4 59.0777 33.4445 55.9155C41.6445 57.1022 48.58 54.4 48.58 54.4Z" fill="#212121"/>
<path id="Vector_40" fill-rule="evenodd" clip-rule="evenodd" d="M64.3156 90.9865H55.2867C55.2867 90.9865 54.8822 89.8354 55.4756 87.6687H61.9067C61.9067 87.6687 66.3378 89.1309 66.38 90.9843H64.3156V90.9865Z" fill="#121212"/>
</g>
</g>
<g id="Group_24">
<g id="Group_25">
<path id="Vector_41" fill-rule="evenodd" clip-rule="evenodd" d="M46.0156 13.1801C46.0156 13.1801 51.089 9.10672 47.7467 6.17116C42.3467 1.43116 35.009 6.04672 35.009 6.04672C33.9023 4.41116 31.5445 5.64894 33.5534 6.82894C31.7979 5.78894 30.769 7.0556 32.1512 7.47116C28.6645 9.21116 32.5667 17.2578 34.2356 21.6289H38.6801L39.0312 17.5889L46.0156 13.1801Z" fill="#212121"/>
<path id="Vector_42" fill-rule="evenodd" clip-rule="evenodd" d="M41.1646 4.36672C42.9046 4.26228 44.3135 4.53339 44.3135 4.97783C44.3135 5.42006 42.9024 5.8645 41.1646 5.97117C39.4246 6.07783 38.0157 5.8045 38.0157 5.36006C38.0157 4.91561 39.4246 4.47339 41.1646 4.36672ZM37.2602 6.23117C37.7246 6.23117 38.1002 6.4045 38.1002 6.61561C38.1002 6.82894 37.7246 7.00006 37.2602 7.00006C36.7957 7.00006 36.4202 6.82672 36.4202 6.61561C36.4202 6.40228 36.7957 6.23117 37.2602 6.23117Z" fill="#121212"/>
</g>
<g id="Group_26">
<path id="Vector_43" fill-rule="evenodd" clip-rule="evenodd" d="M46.2823 11.6558C46.2823 11.6558 47.189 19.9824 44.5512 23.1158C44.5512 23.1158 42.6112 23.4713 41.169 23.3047L41.2001 27.2002L34.1023 27.0313C34.1023 27.0313 34.2556 24.2513 34.2356 21.6313H38.6801L39.0312 17.5913C39.0312 17.5913 36.969 18.2913 36.6001 16.1491C36.229 14.0047 38.2067 12.438 38.7845 13.6758L39.3201 14.7891L40.3712 14.6869L40.5356 12.5224C40.5312 12.5224 44.1179 12.5624 46.2823 11.6558Z" fill="#EBB39D"/>
<path id="Vector_44" fill-rule="evenodd" clip-rule="evenodd" d="M44.5512 23.1155C44.5512 23.1155 42.6112 23.4711 41.169 23.3044L41.2001 27.2L34.1023 27.0311C34.1023 27.0311 34.2556 24.2511 34.2356 21.6311H38.6801C41.069 23.6533 44.5512 23.1155 44.5512 23.1155Z" fill="#DC8C8C"/>
<path id="Vector_45" fill-rule="evenodd" clip-rule="evenodd" d="M46.2822 11.6558C46.2822 11.6558 46.2978 11.8069 46.32 12.0758C45.3889 12.5913 43.5978 13.1824 40.9733 12.7691L40.3711 14.618L40.5311 12.5202C40.5311 12.5224 44.1178 12.5624 46.2822 11.6558Z" fill="#DC8C8C"/>
<path id="Vector_46" fill-rule="evenodd" clip-rule="evenodd" d="M38.9667 17.609C38.6267 17.7046 36.9267 18.0757 36.5934 16.149C36.5067 15.649 36.5489 15.1823 36.6689 14.7735C37.4556 13.2757 38.4578 14.7268 38.4578 14.7268C36.8045 15.0512 38.1 17.169 39.0978 16.7268L39.0267 17.5912L38.9667 17.609Z" fill="#DC8C8C"/>
<path id="Vector_47" fill-rule="evenodd" clip-rule="evenodd" d="M47.6644 14.8781L47.4378 14.9158L47.4355 15.0003L46.4333 14.9225L45.9222 14.8825L39.38 14.3781L39.3711 14.4825L46.1355 15.0025L46.24 15.0114L47.4311 15.1025L47.4289 15.1803L47.6533 15.2247L47.6511 15.2625C47.6133 15.8225 47.4955 16.3314 47.3355 16.6981C47.18 17.0514 46.9889 17.2692 46.8 17.2692H46.7844C46.6222 17.2581 46.4822 17.0847 46.3778 16.8025L46.3755 16.7936C46.3711 16.8692 46.3666 16.9469 46.36 17.0247C46.4711 17.2381 46.6133 17.3669 46.7778 17.3758H46.8C47.0355 17.3758 47.26 17.1336 47.4311 16.7425C47.5978 16.3647 47.7178 15.8447 47.7555 15.2714C47.7644 15.1469 47.7666 15.0269 47.7666 14.9114C47.7666 14.4314 47.7 14.0069 47.5889 13.6981C47.4711 13.3758 47.2978 13.1736 47.0911 13.1603H47.0689C46.8333 13.1603 46.6089 13.4025 46.4378 13.7936C46.4311 13.8092 46.4244 13.8247 46.4178 13.8425C46.42 13.9358 46.4222 14.0314 46.4244 14.1292C46.4578 14.0247 46.4955 13.9247 46.5355 13.8358C46.6911 13.4825 46.88 13.2647 47.0711 13.2647H47.0866C47.2489 13.2758 47.3889 13.4492 47.4933 13.7314C47.5978 14.0247 47.66 14.4225 47.6644 14.8781Z" fill="#212121"/>
</g>
<path id="Vector_48" fill-rule="evenodd" clip-rule="evenodd" d="M33.8557 22.0223L38.1513 21.8556L38.1557 21.96L33.8579 22.1289L33.8557 22.0223Z" fill="#212121"/>
</g>
<g id="Group_27">
<path id="Vector_49" fill-rule="evenodd" clip-rule="evenodd" d="M29.1712 43.3178C29.1712 43.3178 33.3289 28.2912 27.9556 27.5823C22.7089 26.8912 22.0934 44.0801 24.1823 48.0445C26.2712 52.0089 39.2423 46.9689 39.2423 46.9689C39.2423 46.9689 40.0712 44.8889 37.9534 43.4312L29.1712 43.3178Z" fill="#F1F2FF"/>
<path id="Vector_50" fill-rule="evenodd" clip-rule="evenodd" d="M41.3511 25.3711C42.9 25.6911 46.9778 26.6955 48.8289 28.6778C51.1378 31.1511 47.7578 46.6511 48.5822 54.4022C47.6756 56.38 35.8533 60.3089 27.64 54.4022C27.64 54.4022 25.2911 40.4689 26.4445 28.9244C26.4445 28.9244 31.4956 25.7889 34.1022 25.1711H34.1689L34.2222 23.5133L41.3267 23.6355L41.3511 25.3711Z" fill="white"/>
<path id="Vector_51" fill-rule="evenodd" clip-rule="evenodd" d="M49.5712 35.4423C49.2712 40.8623 48.229 48.2245 48.489 53.2267C40.7756 50.3289 43.189 31.6645 43.189 31.6645L48.1845 34.6489C48.1823 34.6467 48.7223 34.9556 49.5712 35.4423Z" fill="#F1F2FF"/>
<path id="Vector_52" fill-rule="evenodd" clip-rule="evenodd" d="M51.5533 43.98C51.5533 43.98 52.1644 27.1156 46.5178 27.5089C40.0022 27.9622 43.7444 46.9156 47.0466 49.9467C50.3489 52.9778 63.8978 46.6889 63.8978 46.6889C63.8978 46.6889 64.5778 44.1822 62.0911 43.5222L51.5533 43.98Z" fill="white"/>
<path id="Vector_53" fill-rule="evenodd" clip-rule="evenodd" d="M62.829 43.8154C63.8423 43.7488 65.4112 43.671 65.7268 43.7954C66.2001 43.9821 67.5823 47.0132 67.5823 47.0132H63.1734C63.6356 46.811 63.8979 46.6887 63.8979 46.6887C63.8979 46.6887 64.4312 44.7243 62.829 43.8154Z" fill="#EBB39D"/>
</g>
</g>
<g id="Group_28">
<path id="Vector_54" fill-rule="evenodd" clip-rule="evenodd" d="M55.7022 67.9938H19.6622C18.9578 67.9938 18.3822 67.4183 18.3822 66.7138C18.3822 66.0094 18.9578 65.4338 19.6622 65.4338H55.7022C56.4066 65.4338 56.9822 66.0094 56.9822 66.7138C56.98 67.4183 56.4044 67.9938 55.7022 67.9938Z" fill="#323232"/>
<path id="Vector_55" fill-rule="evenodd" clip-rule="evenodd" d="M55.7 67.9935H42.2378C41.5333 67.9935 40.9578 67.418 40.9578 66.7135C40.9578 66.0091 41.5333 65.4335 42.2378 65.4335H55.7C56.4044 65.4335 56.98 66.0091 56.98 66.7135C56.98 67.418 56.4044 67.9935 55.7 67.9935Z" fill="#3F3F3F"/>
</g>
</g>
</g>
</g>
</svg>
